<?xml version="1.0" standalone="no"?>
<!DOCTYPE svg PUBLIC "-//W3C//DTD SVG 20010904//EN"
 "http://www.w3.org/TR/2001/REC-SVG-20010904/DTD/svg10.dtd">
<svg version="1.0" xmlns="http://www.w3.org/2000/svg"
 width="774.000000pt" height="739.000000pt" viewBox="0 0 774.000000 739.000000"
 preserveAspectRatio="xMidYMid meet">

<g transform="translate(0.000000,739.000000) scale(0.100000,-0.100000)"
fill="#000000" stroke="none">
<path d="M1465 4290 c-11 -5 -256 -86 -545 -180 -590 -192 -671 -220 -684
-231 -4 -4 9 -17 30 -28 46 -25 69 -39 109 -67 17 -11 71 -45 120 -75 182
-112 753 -464 867 -535 65 -41 126 -74 137 -74 10 0 57 28 105 61 l86 62 -57
35 c-32 20 -87 52 -123 72 -36 20 -128 74 -205 120 -77 45 -160 94 -185 108
-225 127 -283 188 -265 274 15 67 111 132 285 194 68 24 110 40 200 74 79 31
269 100 308 113 17 6 32 13 32 16 0 7 -172 71 -186 70 -5 0 -18 -4 -29 -9z"/>
<path d="M1890 4123 c-74 -33 -99 -44 -230 -99 -206 -85 -260 -122 -260 -174
0 -14 9 -36 21 -49 16 -17 618 -321 636 -321 14 0 163 114 156 120 -6 6 -183
87 -458 210 -22 10 -49 28 -59 39 -34 38 -3 64 185 154 93 45 169 85 169 89 0
5 -56 27 -115 44 -5 1 -26 -4 -45 -13z"/>
<path d="M4996 4129 c-94 -22 -139 -77 -140 -169 -1 -72 8 -104 41 -136 51
-51 146 -69 222 -43 35 13 34 10 20 42 -10 22 -16 23 -59 19 -68 -6 -98 4
-120 41 -30 49 -26 108 8 145 35 38 74 48 124 35 33 -9 40 -8 48 8 17 31 11
47 -20 53 -66 13 -87 14 -124 5z"/>
<path d="M3021 4121 c-5 -4 -25 -58 -46 -121 -20 -63 -40 -119 -45 -124 -4 -4
-18 25 -30 65 -12 41 -30 97 -40 124 -17 49 -18 50 -63 53 l-46 3 26 -68 c14
-37 29 -77 34 -88 5 -11 22 -56 38 -100 l29 -80 51 0 52 0 23 65 c12 36 39
111 58 167 l36 101 -34 4 c-19 2 -38 2 -43 -1z"/>
<path d="M3270 4122 l-45 -3 -39 -102 c-21 -56 -47 -120 -56 -142 -10 -23 -22
-53 -26 -68 -6 -28 -6 -28 36 -25 40 3 44 6 55 38 12 35 12 35 78 38 l66 3 11
-41 c11 -39 12 -40 55 -40 25 0 45 4 45 9 0 19 -113 316 -124 326 -6 6 -31 9
-56 7z m32 -164 c3 -31 1 -33 -31 -36 -33 -3 -34 -3 -28 30 3 18 11 47 17 63
l12 30 14 -27 c7 -14 15 -41 16 -60z"/>
<path d="M3510 3953 l0 -173 123 0 123 0 -4 35 -4 34 -77 3 -76 3 2 132 2 131
-44 4 -45 3 0 -172z"/>
<path d="M4058 4122 l-38 -3 0 -122 c-1 -140 -8 -157 -62 -157 -57 0 -63 16
-61 157 l1 123 -45 0 -45 0 4 -137 c3 -119 6 -142 23 -165 55 -75 216 -61 257
22 14 28 18 61 18 157 0 67 -3 123 -7 125 -5 2 -25 2 -45 0z"/>
<path d="M4611 4120 c-40 -17 -61 -49 -61 -95 0 -56 14 -72 90 -99 59 -22 65
-26 65 -52 0 -29 0 -29 -71 -32 -68 -3 -72 -4 -77 -28 -6 -31 1 -35 72 -41
107 -10 171 31 171 110 0 51 -31 81 -104 102 -62 18 -74 37 -45 66 18 18 29
21 74 15 51 -6 53 -5 59 20 4 15 4 29 1 33 -11 10 -149 11 -174 1z"/>
<path d="M5290 4119 c-71 -29 -115 -118 -99 -202 18 -98 75 -142 185 -142 59
0 77 4 107 25 112 75 96 264 -26 318 -33 14 -132 15 -167 1z m123 -61 c40 -21
51 -40 55 -97 4 -50 1 -61 -23 -89 -23 -27 -33 -32 -71 -32 -56 0 -89 29 -98
87 -17 97 61 172 137 131z"/>
<path d="M5634 4121 c-2 -2 -4 -80 -4 -173 l0 -168 120 0 120 0 0 35 0 35 -81
0 -80 0 3 134 3 134 -38 4 c-21 2 -40 2 -43 -1z"/>
<path d="M5968 4122 l-38 -3 0 -170 0 -169 119 0 119 0 6 26 c4 15 3 31 -1 35
-4 4 -41 9 -82 11 l-73 3 1 132 c1 72 -2 133 -6 135 -4 2 -25 2 -45 0z"/>
<path d="M6348 4122 l-108 -3 -1 -154 c-1 -85 -2 -161 -3 -167 -1 -10 30 -14
117 -16 l118 -3 -3 32 -3 32 -70 1 -70 1 -3 38 -3 37 75 0 76 0 0 30 0 29 -72
3 -73 3 0 35 0 35 75 5 c74 5 75 5 75 32 1 15 -4 29 -10 30 -5 2 -58 2 -117 0z"/>
<path d="M6645 4118 c-67 -24 -105 -81 -105 -156 0 -92 40 -158 109 -181 43
-14 124 -14 174 0 l37 10 0 84 0 85 -40 0 -40 0 -1 -45 c-1 -25 -2 -51 -3 -57
0 -8 -19 -14 -44 -16 -36 -3 -47 1 -72 27 -25 25 -30 37 -30 78 0 86 54 130
145 118 51 -6 53 -5 59 21 4 14 4 29 1 33 -12 11 -159 11 -190 -1z"/>
<path d="M6944 4121 c-2 -2 -4 -80 -4 -173 l0 -168 120 0 120 0 0 30 0 30 -75
0 -75 0 0 40 0 40 75 0 75 0 0 30 0 29 -72 3 -73 3 0 35 0 35 73 3 72 3 0 29
0 29 -116 3 c-64 2 -118 1 -120 -1z"/>
<path d="M4267 4103 c-3 -10 -32 -87 -65 -171 l-60 -153 46 3 c45 3 47 4 55
41 l9 38 67 -3 66 -3 9 -37 c9 -37 10 -38 58 -38 26 0 48 2 48 5 0 4 -80 223
-112 308 -10 25 -15 27 -63 27 -41 0 -54 -4 -58 -17z m81 -123 c13 -52 6 -63
-34 -58 -33 3 -35 19 -9 82 19 44 28 39 43 -24z"/>
<path d="M2105 3982 c-134 -70 -131 -68 -117 -85 7 -8 27 -21 45 -28 18 -6 50
-20 72 -30 22 -9 97 -40 168 -68 l127 -51 78 52 c42 29 79 55 82 58 3 3 17 13
33 23 35 23 34 31 -5 44 -18 6 -107 38 -197 72 -91 34 -172 61 -180 61 -9 0
-57 -22 -106 -48z"/>
<path d="M7268 3852 c-24 -3 -28 -8 -28 -38 0 -32 2 -34 33 -34 31 0 33 2 34
35 1 40 -1 42 -39 37z"/>
<path d="M7475 3846 c-17 -57 -15 -64 16 -68 34 -5 42 5 37 48 -2 21 -9 28
-26 29 -13 1 -25 -3 -27 -9z"/>
<path d="M7352 3813 c3 -35 6 -38 33 -38 27 0 30 3 33 38 3 37 3 37 -33 37
-36 0 -36 0 -33 -37z"/>
<path d="M4130 3565 l0 -65 -41 6 c-53 9 -84 -9 -103 -58 -20 -48 -20 -68 0
-118 13 -32 23 -42 55 -51 28 -9 42 -9 52 -1 8 7 29 9 50 5 l37 -6 0 177 0
176 -25 0 c-24 0 -25 -2 -25 -65z m-12 -107 c7 -7 12 -36 12 -65 0 -45 -4 -55
-25 -69 -23 -15 -27 -15 -50 0 -41 27 -46 94 -9 130 18 19 55 21 72 4z"/>
<path d="M6167 3617 c-3 -8 -6 -87 -6 -176 l-2 -161 26 0 c25 0 25 1 25 75 0
63 3 77 22 95 12 11 29 20 39 20 31 0 40 -26 38 -107 -2 -74 -1 -78 20 -81 21
-3 22 -2 19 105 -3 107 -3 108 -31 121 -25 12 -32 11 -62 -7 -39 -23 -39 -24
-39 64 -1 53 -3 60 -22 63 -12 2 -24 -3 -27 -11z"/>
<path d="M6960 3553 c0 -43 -1 -114 -1 -158 -2 -117 -2 -115 25 -115 l25 0 -2
173 c-2 170 -2 172 -24 175 -22 3 -23 0 -23 -75z"/>
<path d="M3297 3580 c-16 -26 -16 -30 -3 -30 17 0 66 39 66 52 0 4 -10 8 -23
8 -15 0 -29 -11 -40 -30z"/>
<path d="M3540 3588 c-11 -12 -20 -25 -20 -30 0 -18 28 -6 55 22 27 28 28 30
7 30 -12 0 -30 -10 -42 -22z"/>
<path d="M7107 3594 c-4 -4 -7 -56 -7 -116 l0 -108 25 0 26 0 -3 112 c-2 92
-6 113 -18 116 -9 1 -19 0 -23 -4z"/>
<path d="M2919 3502 c-24 -12 -34 -13 -37 -4 -2 7 -15 12 -28 12 -24 0 -24 0
-24 -115 l0 -115 25 0 c25 0 25 1 25 80 0 75 2 81 26 97 19 12 30 14 43 6 13
-8 16 -27 16 -97 0 -82 1 -86 21 -86 26 0 34 23 34 106 0 54 3 62 24 74 47 25
56 10 56 -90 0 -89 0 -90 25 -90 l25 0 0 103 c0 67 -4 107 -12 115 -16 16 -63
15 -97 -3 -25 -12 -31 -12 -40 -1 -19 22 -47 25 -82 8z"/>
<path d="M3524 3508 c-104 -27 -102 -208 3 -234 33 -9 97 17 101 40 3 16 0 18
-19 12 -58 -18 -67 -18 -88 3 -12 12 -21 30 -21 41 0 18 7 20 68 20 38 0 71 3
74 6 9 8 -12 77 -29 95 -18 21 -50 27 -89 17z m53 -36 c6 -4 13 -16 15 -27 2
-17 -3 -21 -36 -23 -50 -4 -66 11 -41 38 19 21 41 25 62 12z"/>
<path d="M4580 3504 c-24 -10 -36 -11 -46 -3 -7 6 -21 9 -30 7 -15 -3 -18 -20
-21 -115 l-4 -113 25 0 c25 0 26 3 27 53 1 103 15 136 60 137 31 0 40 -26 38
-107 -2 -71 -1 -78 18 -81 18 -3 21 4 27 89 5 72 4 96 -8 114 -19 30 -46 35
-86 19z"/>
<path d="M4933 3505 c-44 -19 -67 -58 -67 -116 0 -59 26 -100 72 -113 53 -15
119 15 106 49 -5 12 -11 11 -39 -2 -18 -9 -40 -13 -49 -10 -21 8 -49 54 -41
67 3 5 37 10 76 10 67 0 69 1 69 25 0 41 -27 82 -61 94 -18 6 -32 11 -33 11
-1 -1 -15 -7 -33 -15z m65 -37 c7 -7 12 -20 12 -30 0 -14 -8 -18 -39 -18 -47
0 -59 14 -35 41 20 22 44 25 62 7z"/>
<path d="M5445 3504 c-23 -12 -34 -13 -51 -3 -38 20 -44 5 -44 -112 l0 -109
25 0 c25 0 25 1 25 78 0 87 17 117 62 110 22 -3 23 -7 26 -95 3 -91 3 -93 27
-93 25 0 25 1 25 98 0 102 -7 125 -45 136 -11 3 -33 -1 -50 -10z"/>
<path d="M5795 3513 c-34 -8 -55 -34 -55 -67 0 -42 8 -51 57 -71 44 -17 56
-33 43 -55 -5 -9 -21 -11 -49 -7 -46 6 -64 -9 -36 -30 41 -29 118 -8 134 38
15 44 4 65 -44 84 -24 9 -49 23 -56 32 -21 24 14 44 63 37 29 -5 38 -3 38 8 0
11 -56 41 -71 37 -2 -1 -13 -4 -24 -6z"/>
<path d="M3247 3484 c-70 -70 -29 -214 61 -214 38 0 98 38 84 52 -8 8 -18 8
-37 0 -14 -7 -32 -12 -40 -12 -20 0 -55 40 -55 62 0 16 9 18 76 18 l77 0 -7
33 c-11 56 -37 82 -88 85 -37 2 -49 -1 -71 -24z m103 -23 c18 -34 11 -41 -35
-41 -37 0 -45 3 -45 18 0 41 60 59 80 23z"/>
<path d="M3700 3405 c0 -58 -1 -108 -2 -112 -2 -5 9 -9 25 -11 l27 -3 0 71 c0
75 11 110 35 110 13 0 35 28 35 44 0 13 -38 5 -51 -10 -11 -14 -13 -14 -21 0
-5 9 -18 16 -28 16 -19 0 -20 -8 -20 -105z"/>
<path d="M4278 3494 c-16 -8 -28 -21 -28 -29 0 -19 10 -19 46 -1 20 11 33 12
46 5 32 -17 16 -40 -40 -61 -58 -22 -79 -50 -68 -93 9 -37 48 -52 92 -36 27
10 38 10 49 1 16 -13 65 -6 65 10 0 5 -9 14 -20 20 -18 9 -20 21 -20 93 0 51
-5 88 -12 95 -16 16 -77 14 -110 -4z m76 -120 c10 -27 -3 -53 -30 -60 -49 -13
-60 40 -14 63 33 17 37 16 44 -3z"/>
<path d="M5138 3481 c-30 -26 -32 -34 -33 -91 0 -57 2 -64 33 -91 38 -35 74
-37 121 -8 24 14 31 23 23 31 -8 8 -19 7 -41 -1 -16 -7 -38 -10 -49 -7 -18 6
-42 44 -42 66 0 6 34 10 75 10 81 0 82 1 65 59 -12 43 -36 60 -82 61 -28 0
-46 -8 -70 -29z m100 -13 c7 -7 12 -20 12 -30 0 -15 -8 -18 -45 -18 -37 0 -45
3 -45 18 0 24 19 42 45 42 12 0 26 -5 33 -12z"/>
<path d="M5988 3490 c-59 -46 -63 -144 -8 -192 34 -31 67 -35 110 -13 50 26
31 56 -21 34 -27 -11 -33 -10 -52 10 -16 16 -22 34 -22 67 0 57 23 78 77 70
43 -7 61 10 33 31 -28 19 -88 16 -117 -7z"/>
<path d="M6457 3489 c-37 -28 -52 -83 -38 -136 15 -54 51 -83 104 -83 32 0 46
6 73 35 18 19 34 47 36 63 5 45 -13 101 -40 122 -34 27 -101 27 -135 -1z m110
-38 c20 -26 16 -98 -7 -121 -39 -39 -84 -18 -95 44 -7 35 14 90 37 99 19 8 51
-3 65 -22z"/>
<path d="M6718 3491 c-35 -28 -52 -92 -37 -139 18 -56 44 -75 101 -76 44 -1
53 3 80 33 28 31 30 38 26 94 -4 50 -9 64 -32 84 -35 30 -102 32 -138 4z m102
-31 c25 -25 27 -95 4 -128 -47 -68 -130 29 -90 106 24 46 54 54 86 22z"/>
<path d="M7100 3305 c0 -20 5 -25 25 -25 20 0 25 5 25 25 0 20 -5 25 -25 25
-20 0 -25 -5 -25 -25z"/>
</g>
</svg>
